<svg width="224" height="123" viewBox="0 0 224 123" fill="black" xmlns="http://www.w3.org/2000/svg">
<g clip-path="url(#clip0_4_16)">
<path fill-rule="evenodd" clip-rule="evenodd" d="M55.41 80.68C51.78 81.77 48.32 81.75 44.97 80.9C41.39 79.99 37.97 78.12 34.67 75.63C31.23 78.21 27.63 79.98 23.83 80.75C20.17 81.49 16.36 81.29 12.38 80C10.74 89.06 12.48 96.51 16.69 102.79C20.66 108.72 26.85 113.66 34.51 117.96C34.22 116.76 34.03 115.6 33.94 114.48C33.75 112.14 34 110 34.68 108.04C36.31 103.3 40.08 100.72 44.08 97.98C49.28 94.4 54.92 90.52 55.41 80.68ZM24.03 10.16C22.53 4.32001 26.47 -0.299991 32.43 0.0200088C36.49 0.240009 39.32 2.41001 41.62 4.81001C45.48 8.83001 47.82 13.47 51.94 10.45C51.89 14.15 50.11 16.66 46.39 17.37C47.04 18.71 47.54 20.2 47.84 21.85C47.91 22.23 47.97 22.61 48.02 23C49.1 23.46 50.03 24.16 50.73 25.01C51.57 26.03 52.08 27.28 52.12 28.64C52.17 30.05 51.71 31.37 50.88 32.46C52.33 32.84 53.4 34.15 53.4 35.72C53.4 37.58 51.89 39.09 50.03 39.09C48.29 39.09 46.85 37.76 46.68 36.06C45.74 38.93 44.61 41.68 42.59 43.88C42.29 44.2 41.98 44.49 41.65 44.76C43.43 44.86 45.18 45 46.88 45.18C56 46.19 62.05 49.81 65.4 54.38C67.3 56.98 68.33 59.88 68.55 62.79C68.77 65.7 68.19 68.62 66.87 71.27C65.23 74.56 62.45 77.41 58.66 79.28C58.69 91.87 52.01 96.46 45.88 100.67C42.34 103.1 39.01 105.38 37.73 109.11C37.2 110.65 37.01 112.36 37.16 114.24C37.32 116.18 37.84 118.3 38.74 120.62C38.93 121.05 38.93 121.56 38.7 122.01C38.29 122.81 37.32 123.13 36.52 122.72C26.8 117.75 18.9 111.9 14 104.59C9.19001 97.41 7.28001 88.89 9.37001 78.54C7.87001 77.72 6.50001 76.73 5.30001 75.6C3.28001 73.7 1.75001 71.4 0.860006 68.88C-0.919994 63.81 -0.0699935 57.9 4.84001 52.53C6.52001 50.69 8.55001 49.27 10.83 48.18C13.06 47.11 15.52 46.35 18.11 45.81C19.42 45.54 20.76 45.32 22.12 45.16C21.38 44.55 20.72 43.85 20.15 43.08C19.51 42.2 18.98 41.21 18.58 40.1C18.55 40.04 18.51 39.99 18.48 39.93C17.94 38.97 17.44 37.93 17.01 36.83C16.55 38.14 15.3 39.09 13.83 39.09C11.97 39.09 10.46 37.58 10.46 35.72C10.46 34.51 11.1 33.44 12.07 32.85C11.51 31.93 11.2 30.88 11.2 29.77C11.2 28.41 11.67 27.15 12.48 26.1C13.14 25.24 14.04 24.53 15.08 24.03C15.15 23.24 15.26 22.45 15.41 21.67C16.46 16.21 19.67 12.44 23.69 10.36C23.79 10.28 23.91 10.22 24.03 10.16ZM36.62 47.81C35.15 48.79 34.12 50.02 34.23 52.33C31.55 51.9 30.64 50.81 29.19 48.81C28.5 48.63 27.72 48.33 26.92 47.97C26.69 47.98 26.45 48 26.22 48.01C23.65 48.18 21.13 48.47 18.75 48.97C16.4 49.46 14.19 50.14 12.22 51.08C10.3 52 8.60001 53.19 7.22001 54.7C3.23001 59.07 2.51001 63.79 3.92001 67.81C4.63001 69.83 5.88001 71.68 7.52001 73.23C9.18001 74.8 11.25 76.05 13.58 76.85C19.36 78.83 26.72 77.98 33.49 72.17C34.04 71.48 34.61 70.83 35.2 70.22C33.44 68.65 31.65 67.59 29.84 66.98C27.66 66.24 25.41 66.14 23.11 66.54C22.23 66.69 21.39 66.1 21.23 65.22C21.08 64.34 21.67 63.5 22.55 63.34C25.37 62.85 28.14 62.99 30.86 63.9C33.17 64.68 35.41 66.02 37.58 68C38.05 67.61 38.53 67.24 39.03 66.89C41.07 65.43 43.28 64.28 45.62 63.37C46.45 63.05 47.39 63.46 47.71 64.3C48.03 65.13 47.62 66.07 46.79 66.39C44.7 67.2 42.72 68.23 40.91 69.53C39.52 70.52 38.22 71.68 37.02 73.01C39.47 74.84 41.96 76.27 44.51 77.14C47.43 78.14 50.45 78.4 53.61 77.66C58.63 76.42 62.18 73.42 64 69.79C65.06 67.67 65.53 65.33 65.35 63C65.17 60.67 64.35 58.35 62.82 56.26C59.97 52.36 54.67 49.27 46.56 48.37C44.53 48.15 42.48 47.99 40.42 47.9C39.14 47.86 37.88 47.83 36.62 47.81ZM29.83 44.01C30.99 43.17 31.27 40.93 32.64 40.98C34.06 41.03 34.25 43.52 35.53 43.86L35.54 43.94C38.83 43.24 41.72 41.38 43.35 38.46C44.51 36.02 44.97 33.13 45.44 30.12C45.85 27.49 45.9 24.77 45.42 22.17C44.52 17.3 42.21 14.42 38.71 12.57C36.54 11.43 34.11 10.85 31.67 10.85C29.23 10.84 26.78 11.4 24.61 12.53C21.09 14.35 18.77 17.19 17.84 22.01C17.3 24.82 17.34 27.79 17.82 30.63C19.17 38.68 24.14 42.99 29.83 44.01ZM25.04 24.29C25.91 24.29 26.61 25.27 26.61 26.47C26.61 27.67 25.91 28.65 25.04 28.65C24.17 28.65 23.47 27.67 23.47 26.47C23.47 25.27 24.17 24.29 25.04 24.29ZM27.24 36.48C26.91 36.01 27.1 35.76 27.44 35.53C27.67 35.37 27.98 35.39 28.32 35.48C29.96 35.92 29.97 36.12 31.81 36.11C33.65 36.1 33.94 35.83 35.53 35.43C35.8 35.36 36.06 35.34 36.29 35.41C36.82 35.58 37 35.98 36.67 36.47C34.37 39.84 29 38.95 27.24 36.48ZM35.91 22.81C35.76 23.11 35.83 23.39 36.05 23.52C36.46 23.77 37.28 23.32 37.81 23.21C38.63 23.04 39.47 23.07 40.31 23.28C40.75 23.4 41.34 23.7 41.78 23.58C42.12 23.48 42.27 23.15 42.09 22.85C41.04 21.06 36.72 21.12 35.91 22.81ZM21.95 22.81C21.8 23.11 21.87 23.39 22.09 23.52C22.5 23.77 23.32 23.32 23.85 23.21C24.67 23.04 25.51 23.07 26.35 23.28C26.79 23.4 27.38 23.7 27.82 23.58C28.16 23.48 28.31 23.15 28.13 22.85C27.09 21.06 22.76 21.12 21.95 22.81ZM30.08 32.33C30.11 32.08 30.3 31.99 30.64 32.01H33.3C33.66 31.98 33.91 32.06 33.95 32.37C34.02 32.93 33.4 33.35 32.97 33.56C32.33 33.88 31.59 33.9 30.94 33.53C30.53 33.29 30.01 32.86 30.08 32.33ZM39.02 24.29C39.89 24.29 40.59 25.27 40.59 26.47C40.59 27.67 39.89 28.65 39.02 28.65C38.15 28.65 37.45 27.67 37.45 26.47C37.45 25.27 38.15 24.29 39.02 24.29ZM49.78 33.6C49.32 33.98 48.81 34.3 48.26 34.57C48.05 34.9 47.93 35.29 47.93 35.7C47.93 36.87 48.88 37.82 50.05 37.82C51.22 37.82 52.17 36.87 52.17 35.7C52.17 34.53 51.22 33.58 50.05 33.58C49.95 33.59 49.86 33.59 49.78 33.6ZM15.94 35.84C14.8 35.46 13.79 34.83 13 34.03C12.94 33.97 12.88 33.9 12.82 33.84C12.16 34.2 11.71 34.9 11.71 35.7C11.71 36.87 12.66 37.82 13.83 37.82C14.95 37.82 15.87 36.94 15.94 35.84ZM13.99 32.34C14.66 32.37 15.27 32.6 15.78 32.97C15.62 32.3 15.48 31.63 15.36 30.94C15.1 29.41 14.96 27.83 14.96 26.26C14.53 26.56 14.16 26.91 13.86 27.3C13.32 28 13 28.85 13 29.74C13.01 30.71 13.38 31.6 13.99 32.34ZM48.21 25.24C48.27 26.97 48.15 28.72 47.88 30.41C47.75 31.24 47.59 32.05 47.4 32.86C48.09 32.55 48.69 32.12 49.17 31.6C49.92 30.79 50.35 29.77 50.32 28.68C50.29 27.78 49.94 26.95 49.38 26.26C49.05 25.87 48.66 25.53 48.21 25.24ZM33.41 8.53001V7.38001C33.41 6.18001 32.39 5.21001 31.14 5.21001H30.37C29.12 5.21001 28.1 6.19001 28.1 7.38001V8.80001C29.27 8.56001 30.47 8.45001 31.67 8.45001C32.24 8.44001 32.82 8.47001 33.41 8.53001Z" fill="black"/>
</g>
<path d="M99.76 73.63C99.76 76.3633 98.5933 78.5467 96.26 80.18C94.1267 81.68 91.5267 82.43 88.46 82.43C84.46 82.43 81.5433 80.7133 79.71 77.28C78.31 74.6467 77.61 71.13 77.61 66.73C77.61 62.2967 78.4767 58.1967 80.21 54.43C82.4433 49.6633 85.4933 47.28 89.36 47.28C89.66 47.28 90.16 47.4133 90.86 47.68C92.7933 48.4467 94.46 50.18 95.86 52.88C97.1933 55.4133 97.86 57.8133 97.86 60.08C97.86 64.1467 97.0433 66.18 95.41 66.18C94.4767 66.18 94.01 65.7967 94.01 65.03C94.01 64.8967 94.2267 64.4133 94.66 63.58C95.0933 62.7467 95.31 62.08 95.31 61.58C95.31 59.2133 94.86 56.88 93.96 54.58C92.7933 51.58 91.1933 50.08 89.16 50.08C87.0933 50.08 85.2933 51.33 83.76 53.83C82.56 55.7967 81.7433 58.03 81.31 60.53C80.91 62.9967 80.71 65.1467 80.71 66.98C80.71 70.48 81.01 73.0633 81.61 74.73C82.51 77.33 84.31 79.03 87.01 79.83C87.8767 80.0967 88.5767 80.23 89.11 80.23C90.6433 80.23 92.0933 79.8467 93.46 79.08C94.8267 78.3133 95.86 77.28 96.56 75.98C97.2267 74.78 97.56 73.9467 97.56 73.48C97.56 72.7467 96.9933 72.38 95.86 72.38C93.56 72.38 91.7267 72.7133 90.36 73.38C88.9933 74.0133 88.3433 74.33 88.41 74.33C87.31 74.33 86.76 73.4467 86.76 71.68C86.76 71.28 86.9767 70.9467 87.41 70.68C87.8433 70.4133 89.06 70.1133 91.06 69.78C92.96 69.4467 94.26 69.28 94.96 69.28C96.2933 69.28 97.4267 69.68 98.36 70.48C99.2933 71.28 99.76 72.33 99.76 73.63ZM106.551 54.83C106.551 55.9633 106.017 56.53 104.951 56.53C104.317 56.53 103.734 56.2967 103.201 55.83C102.667 55.3633 102.401 54.83 102.401 54.23C102.401 53.0967 102.967 52.53 104.101 52.53C104.767 52.53 105.334 52.7467 105.801 53.18C106.301 53.6133 106.551 54.1633 106.551 54.83ZM105.601 62.33C105.601 62.93 105.467 63.83 105.201 65.03C104.934 66.23 104.801 67.13 104.801 67.73V78.78C104.801 79.5133 104.951 80.5133 105.251 81.78C105.117 82.0467 104.934 82.18 104.701 82.18C103.067 82.18 102.251 81.3967 102.251 79.83V61.48C102.684 61.2467 103.101 61.13 103.501 61.13C103.901 61.13 104.317 61.2467 104.751 61.48C105.317 61.7133 105.601 61.9967 105.601 62.33ZM122.799 51.03C122.799 51.6967 122.299 52.03 121.299 52.03C121.099 52.03 120.949 51.9967 120.849 51.93C120.716 50.53 119.782 49.83 118.049 49.83C116.416 49.83 115.149 51.6967 114.249 55.43C113.649 58.0633 113.349 60.58 113.349 62.98C113.582 62.9467 113.882 62.9467 114.249 62.98C115.049 62.98 115.499 62.98 115.599 62.98C116.832 62.98 117.449 63.3467 117.449 64.08C117.449 64.3133 117.416 64.6467 117.349 65.08C116.816 65.38 115.982 65.53 114.849 65.53C113.982 65.53 113.449 65.5967 113.249 65.73C113.149 67.03 113.099 69.38 113.099 72.78V76.38C113.099 77.98 113.282 79.5967 113.649 81.23C113.716 81.3967 113.749 81.5467 113.749 81.68C113.749 82.48 113.182 82.88 112.049 82.88C111.049 82.88 110.549 81.53 110.549 78.83C110.549 71.4967 110.616 67.1633 110.749 65.83C110.816 65.83 109.966 65.83 108.199 65.83C107.432 65.83 107.049 65.4633 107.049 64.73C107.049 63.7633 107.716 63.28 109.049 63.28H110.849C110.916 62.6133 110.982 61.7633 111.049 60.73C111.549 51.8633 114.032 47.43 118.499 47.43C121.366 47.43 122.799 48.63 122.799 51.03ZM128.349 66.13C128.082 66.33 127.449 66.4967 126.449 66.63C125.349 66.7633 124.716 66.88 124.549 66.98C124.516 67.3467 124.499 69.1967 124.499 72.53C124.499 75.13 124.532 76.88 124.599 77.78C124.599 78.1467 124.682 78.73 124.849 79.53C125.016 80.33 125.099 80.9467 125.099 81.38C125.099 81.6467 124.932 81.9133 124.599 82.18C124.266 82.4467 123.966 82.58 123.699 82.58C123.032 82.58 122.499 81.8967 122.099 80.53C121.832 79.53 121.699 78.58 121.699 77.68C121.699 72.98 121.732 69.5133 121.799 67.28C121.599 67.1133 120.832 67.1133 119.499 67.28C118.432 67.4133 117.899 67.03 117.899 66.13C117.899 64.8633 119.249 64.28 121.949 64.38L122.599 55.33C122.599 55.23 122.549 55.08 122.449 54.88C122.382 54.6467 122.349 54.48 122.349 54.38C122.349 54.18 122.482 53.9967 122.749 53.83C123.016 53.63 123.332 53.5467 123.699 53.58C124.866 53.68 125.449 54.2633 125.449 55.33C125.449 56.1633 125.332 57.4133 125.099 59.08C124.866 60.7467 124.749 61.98 124.749 62.78C124.749 63.18 124.782 63.5633 124.849 63.93L127.599 63.78C128.532 63.78 128.999 64.1467 128.999 64.88C128.999 65.4133 128.782 65.83 128.349 66.13ZM163.94 73.63C163.94 76.3633 162.773 78.5467 160.44 80.18C158.306 81.68 155.706 82.43 152.64 82.43C148.64 82.43 145.723 80.7133 143.89 77.28C142.49 74.6467 141.79 71.13 141.79 66.73C141.79 62.2967 142.656 58.1967 144.39 54.43C146.623 49.6633 149.673 47.28 153.54 47.28C153.84 47.28 154.34 47.4133 155.04 47.68C156.973 48.4467 158.64 50.18 160.04 52.88C161.373 55.4133 162.04 57.8133 162.04 60.08C162.04 64.1467 161.223 66.18 159.59 66.18C158.656 66.18 158.19 65.7967 158.19 65.03C158.19 64.8967 158.406 64.4133 158.84 63.58C159.273 62.7467 159.49 62.08 159.49 61.58C159.49 59.2133 159.04 56.88 158.14 54.58C156.973 51.58 155.373 50.08 153.34 50.08C151.273 50.08 149.473 51.33 147.94 53.83C146.74 55.7967 145.923 58.03 145.49 60.53C145.09 62.9967 144.89 65.1467 144.89 66.98C144.89 70.48 145.19 73.0633 145.79 74.73C146.69 77.33 148.49 79.03 151.19 79.83C152.056 80.0967 152.756 80.23 153.29 80.23C154.823 80.23 156.273 79.8467 157.64 79.08C159.006 78.3133 160.04 77.28 160.74 75.98C161.406 74.78 161.74 73.9467 161.74 73.48C161.74 72.7467 161.173 72.38 160.04 72.38C157.74 72.38 155.906 72.7133 154.54 73.38C153.173 74.0133 152.523 74.33 152.59 74.33C151.49 74.33 150.94 73.4467 150.94 71.68C150.94 71.28 151.156 70.9467 151.59 70.68C152.023 70.4133 153.24 70.1133 155.24 69.78C157.14 69.4467 158.44 69.28 159.14 69.28C160.473 69.28 161.606 69.68 162.54 70.48C163.473 71.28 163.94 72.33 163.94 73.63ZM180.83 76.93C180.83 78.3967 179.847 79.7133 177.88 80.88C176.114 81.9467 174.447 82.48 172.88 82.48C168.414 82.48 166.18 79.6467 166.18 73.98C166.18 71.48 166.63 68.7967 167.53 65.93C168.73 62.1967 170.264 60.33 172.13 60.33C173.73 60.33 175.48 61.1467 177.38 62.78C179.28 64.38 180.23 65.98 180.23 67.58C180.23 69.6467 179.397 71.4467 177.73 72.98C176.064 74.5133 174.18 75.28 172.08 75.28C171.88 75.28 171.447 75.1133 170.78 74.78C170.147 74.4467 169.714 74.28 169.48 74.28C169.047 74.28 168.83 74.4133 168.83 74.68C168.83 78.5133 170.097 80.43 172.63 80.43C173.93 80.43 175.13 79.9967 176.23 79.13C176.897 78.63 177.63 77.8467 178.43 76.78C179.064 75.9467 179.48 75.53 179.68 75.53C180.447 75.53 180.83 75.9967 180.83 76.93ZM177.38 67.73C177.38 66.5633 177.047 65.48 176.38 64.48C175.714 63.4467 174.83 62.93 173.73 62.93C172.397 62.93 171.314 63.7633 170.48 65.43C169.78 66.83 169.43 68.28 169.43 69.78C169.43 70.7467 169.73 71.5633 170.33 72.23C170.964 72.8633 171.764 73.18 172.73 73.18C174.097 73.18 175.23 72.5967 176.13 71.43C176.964 70.3633 177.38 69.13 177.38 67.73ZM198.944 82.13C198.744 82.4967 198.461 82.68 198.094 82.68C197.728 82.68 197.128 82.4467 196.294 81.98V81.58C196.294 81.28 196.311 80.83 196.344 80.23C196.378 79.63 196.394 79.1967 196.394 78.93C196.394 67.8633 195.011 62.33 192.244 62.33C191.378 62.33 190.444 62.9633 189.444 64.23C186.911 67.3633 185.644 71.3133 185.644 76.08C185.644 76.7133 185.744 77.6467 185.944 78.88C186.178 80.08 186.294 80.9967 186.294 81.63C186.294 82.13 185.944 82.38 185.244 82.38C183.911 82.38 183.244 81.33 183.244 79.23V67.88C183.244 67.58 183.278 67.1467 183.344 66.58C183.411 66.0133 183.444 65.58 183.444 65.28C183.444 64.8467 183.378 64.2133 183.244 63.38C183.144 62.5467 183.094 61.93 183.094 61.53C183.094 61.2633 183.294 60.9633 183.694 60.63C184.128 60.2633 184.461 60.08 184.694 60.08C185.128 60.08 185.528 60.3133 185.894 60.78C185.794 62.9467 185.744 64.2133 185.744 64.58C185.744 65.08 185.761 65.5633 185.794 66.03C186.094 65.93 186.494 65.38 186.994 64.38C187.628 63.1133 188.161 62.2467 188.594 61.78C189.394 60.8467 190.311 60.38 191.344 60.38C191.744 60.38 192.344 60.53 193.144 60.83C194.944 61.4967 196.228 62.5967 196.994 64.13C198.294 66.7633 198.944 70.2467 198.944 74.58V82.13ZM206.785 54.83C206.785 55.9633 206.252 56.53 205.185 56.53C204.552 56.53 203.968 56.2967 203.435 55.83C202.902 55.3633 202.635 54.83 202.635 54.23C202.635 53.0967 203.202 52.53 204.335 52.53C205.002 52.53 205.568 52.7467 206.035 53.18C206.535 53.6133 206.785 54.1633 206.785 54.83ZM205.835 62.33C205.835 62.93 205.702 63.83 205.435 65.03C205.168 66.23 205.035 67.13 205.035 67.73V78.78C205.035 79.5133 205.185 80.5133 205.485 81.78C205.352 82.0467 205.168 82.18 204.935 82.18C203.302 82.18 202.485 81.3967 202.485 79.83V61.48C202.918 61.2467 203.335 61.13 203.735 61.13C204.135 61.13 204.552 61.2467 204.985 61.48C205.552 61.7133 205.835 61.9967 205.835 62.33ZM223.135 76.93C223.135 78.3967 222.152 79.7133 220.185 80.88C218.418 81.9467 216.752 82.48 215.185 82.48C210.718 82.48 208.485 79.6467 208.485 73.98C208.485 71.48 208.935 68.7967 209.835 65.93C211.035 62.1967 212.568 60.33 214.435 60.33C216.035 60.33 217.785 61.1467 219.685 62.78C221.585 64.38 222.535 65.98 222.535 67.58C222.535 69.6467 221.702 71.4467 220.035 72.98C218.368 74.5133 216.485 75.28 214.385 75.28C214.185 75.28 213.752 75.1133 213.085 74.78C212.452 74.4467 212.018 74.28 211.785 74.28C211.352 74.28 211.135 74.4133 211.135 74.68C211.135 78.5133 212.402 80.43 214.935 80.43C216.235 80.43 217.435 79.9967 218.535 79.13C219.202 78.63 219.935 77.8467 220.735 76.78C221.368 75.9467 221.785 75.53 221.985 75.53C222.752 75.53 223.135 75.9967 223.135 76.93ZM219.685 67.73C219.685 66.5633 219.352 65.48 218.685 64.48C218.018 63.4467 217.135 62.93 216.035 62.93C214.702 62.93 213.618 63.7633 212.785 65.43C212.085 66.83 211.735 68.28 211.735 69.78C211.735 70.7467 212.035 71.5633 212.635 72.23C213.268 72.8633 214.068 73.18 215.035 73.18C216.402 73.18 217.535 72.5967 218.435 71.43C219.268 70.3633 219.685 69.13 219.685 67.73Z" fill="black"/>
<defs>
<clipPath id="clip0_4_16">
<rect width="68.61" height="122.88" fill="white"/>
</clipPath>
</defs>
</svg>
